<?xml version="1.0" standalone="no"?>
<!DOCTYPE svg PUBLIC "-//W3C//DTD SVG 20010904//EN"
 "http://www.w3.org/TR/2001/REC-SVG-20010904/DTD/svg10.dtd">
<svg version="1.0" xmlns="http://www.w3.org/2000/svg"
 width="512.000000pt" height="512.000000pt" viewBox="0 0 512.000000 512.000000"
 preserveAspectRatio="xMidYMid meet">
<metadata>
Created by potrace 1.14, written by Peter Selinger 2001-2017
</metadata>
<g transform="translate(0.000000,512.000000) scale(0.100000,-0.100000)"
fill="#000000" stroke="none">
<path d="M115 5008 c-42 -15 -74 -46 -96 -93 -18 -38 -19 -91 -19 -1117 l0
-1077 102 -3 c57 -2 138 -2 181 0 l77 3 0 329 0 330 900 0 900 0 0 -220 0
-220 -490 0 -489 0 -3 -322 c-2 -178 -2 -398 0 -491 l2 -167 120 0 120 0 0
370 0 370 490 0 490 0 0 460 -1 460 -339 0 -340 0 0 380 0 380 -120 0 -120 0
0 -380 0 -380 -560 0 -560 0 0 520 0 520 220 0 220 0 0 -280 0 -280 120 0 120
0 -1 143 c0 78 0 204 1 280 l0 137 560 0 560 0 0 -280 0 -280 120 0 120 0 0
280 0 280 260 0 260 0 0 -980 0 -980 330 0 330 0 0 120 0 120 -210 0 -210 0 0
860 0 860 620 0 620 0 0 -160 0 -160 -382 2 -383 3 3 -482 2 -483 120 0 120 0
0 360 0 360 260 0 260 0 2 -212 3 -212 111 -66 c61 -37 141 -84 178 -104 l66
-37 0 706 c0 673 -1 708 -19 743 -23 46 -46 67 -94 87 -32 13 -281 15 -2269
14 -1530 0 -2242 -4 -2263 -11z"/>
<path d="M4400 3280 l0 -120 -227 0 c-200 0 -233 -3 -268 -19 -48 -22 -69 -44
-90 -94 -12 -30 -15 -87 -15 -312 l0 -275 -1013 0 c-967 0 -1014 -1 -1047 -19
-19 -10 -48 -35 -65 -55 l-30 -38 -3 -314 -3 -314 -349 0 -349 0 -3 318 c-3
361 -3 360 -85 412 l-46 29 -403 1 -404 0 0 -180 0 -180 290 0 290 0 0 -310
c0 -295 1 -311 21 -350 25 -49 59 -77 108 -90 21 -5 266 -9 591 -9 542 0 556
0 598 21 26 12 54 37 70 61 l27 41 2 235 c1 130 2 269 3 309 l0 72 1007 0
c1005 0 1007 0 1051 21 26 13 54 38 70 62 l27 40 3 289 3 288 120 0 119 0 0
-121 0 -120 33 18 c17 10 34 20 37 23 5 6 82 50 320 187 80 46 152 87 160 92
8 6 51 31 95 57 50 30 74 49 65 52 -8 3 -43 23 -78 44 -34 21 -65 38 -68 38
-3 0 -18 8 -32 19 -15 10 -47 29 -72 43 -25 14 -80 46 -123 72 -43 25 -80 46
-83 46 -3 0 -25 14 -49 30 -24 17 -47 30 -50 30 -4 0 -19 8 -33 18 -15 10 -48
31 -74 46 l-48 27 0 -121z"/>
<path d="M4601 2399 c-84 -49 -157 -89 -161 -89 -4 0 -14 -8 -23 -18 -16 -17
-17 -96 -17 -925 l0 -907 -620 0 -620 0 0 220 0 220 360 0 360 0 0 480 0 480
-479 0 -480 0 0 -120 1 -120 359 0 359 0 0 -240 0 -240 -360 0 -360 0 0 -340
0 -340 -600 0 -600 0 0 220 0 220 370 0 370 0 0 480 0 480 -120 0 -120 0 -1
-262 c0 -145 0 -307 1 -361 l1 -97 -588 0 c-323 0 -612 0 -640 0 l-53 0 0
-120 0 -120 270 0 270 0 0 -220 0 -220 -560 0 -560 0 0 710 0 710 -180 0 -180
0 0 -815 c0 -711 2 -820 15 -852 20 -48 41 -71 87 -94 36 -18 99 -19 2274 -19
l2238 0 43 21 c51 25 79 58 93 109 7 24 9 425 8 1148 l-3 1111 -154 -90z"/>
</g>
</svg>
